<svg width="78" height="76" viewBox="0 0 78 76" fill="none" xmlns="http://www.w3.org/2000/svg">
<path d="M51.6152 19.8553L23.8959 24.8363C21.617 25.2415 19.76 27.4871 19.76 30.1718V47.0057C19.76 49.7748 21.617 51.9529 23.8959 52.3919L51.6152 57.6599C54.9914 58.3015 57.76 55.7857 57.76 52.1893V25.5623C57.76 21.5944 54.9914 19.2475 51.6152 19.8553Z" fill="#00E88F"/>
<path d="M44.6416 47.1144C42.9927 48.9451 40.7829 50.16 38.114 50.16C32.0794 50.16 27.6767 45.3836 27.6767 38.7267C27.6767 32.1197 32.0794 27.2934 38.114 27.2934C40.4599 27.2934 42.4658 28.1588 44.0127 29.5901L44.0807 18.24H49.8433L49.7753 49.5941H45.0666L44.6416 47.1144ZM33.5413 38.7267C33.5413 42.5877 35.6322 45.1174 38.777 45.1174C42.1938 45.1174 44.0127 42.6044 44.0127 38.7267C44.0127 34.8657 42.1938 32.336 38.777 32.336C35.6322 32.336 33.5413 34.8657 33.5413 38.7267Z" fill="black"/>
</svg>
